<mxfile host="app.diagrams.net" modified="2023-10-17T05:43:39.667Z" agent="Mozilla/5.0 (Macintosh; Intel Mac OS X 10_15_7) AppleWebKit/537.36 (KHTML, like Gecko) Chrome/116.0.0.0 Safari/537.36" etag="G1jPMucfq79CNFF_y2YU" version="21.8.2" type="github">
  <diagram name="Page-1" id="z-tZdo9YfumDO6y8S2xv">
    <mxGraphModel dx="2336" dy="832" grid="1" gridSize="10" guides="1" tooltips="1" connect="1" arrows="1" fold="1" page="1" pageScale="1" pageWidth="827" pageHeight="1169" math="0" shadow="0">
      <root>
        <mxCell id="0" />
        <mxCell id="1" parent="0" />
        <mxCell id="5btWQWwLIaZkZKoqhnkt-2" value="Client A" style="verticalLabelPosition=bottom;html=1;verticalAlign=top;align=center;strokeColor=none;fillColor=#00BEF2;shape=mxgraph.azure.user;" vertex="1" parent="1">
          <mxGeometry x="239" y="170" width="47.5" height="50" as="geometry" />
        </mxCell>
        <mxCell id="5btWQWwLIaZkZKoqhnkt-3" value="Legal person A1" style="verticalLabelPosition=bottom;sketch=0;html=1;fillColor=#282828;strokeColor=none;verticalAlign=top;pointerEvents=1;align=center;shape=mxgraph.cisco_safe.people_places_things_icons.icon8;" vertex="1" parent="1">
          <mxGeometry x="149" y="355" width="19.5" height="50" as="geometry" />
        </mxCell>
        <mxCell id="5btWQWwLIaZkZKoqhnkt-4" style="rounded=0;orthogonalLoop=1;jettySize=auto;html=1;entryX=0.513;entryY=-0.06;entryDx=0;entryDy=0;entryPerimeter=0;exitX=0.5;exitY=1;exitDx=0;exitDy=0;exitPerimeter=0;" edge="1" parent="1" source="5btWQWwLIaZkZKoqhnkt-2" target="5btWQWwLIaZkZKoqhnkt-3">
          <mxGeometry relative="1" as="geometry" />
        </mxCell>
        <mxCell id="5btWQWwLIaZkZKoqhnkt-5" value="Legal person A2" style="verticalLabelPosition=bottom;sketch=0;html=1;fillColor=#282828;strokeColor=none;verticalAlign=top;pointerEvents=1;align=center;shape=mxgraph.cisco_safe.people_places_things_icons.icon8;" vertex="1" parent="1">
          <mxGeometry x="253" y="355" width="19.5" height="50" as="geometry" />
        </mxCell>
        <mxCell id="5btWQWwLIaZkZKoqhnkt-6" value="Legal person A3" style="verticalLabelPosition=bottom;sketch=0;html=1;fillColor=#282828;strokeColor=none;verticalAlign=top;pointerEvents=1;align=center;shape=mxgraph.cisco_safe.people_places_things_icons.icon8;" vertex="1" parent="1">
          <mxGeometry x="359" y="355" width="19.5" height="50" as="geometry" />
        </mxCell>
        <mxCell id="5btWQWwLIaZkZKoqhnkt-7" style="rounded=0;orthogonalLoop=1;jettySize=auto;html=1;entryX=0.462;entryY=-0.1;entryDx=0;entryDy=0;entryPerimeter=0;" edge="1" parent="1" source="5btWQWwLIaZkZKoqhnkt-2" target="5btWQWwLIaZkZKoqhnkt-5">
          <mxGeometry relative="1" as="geometry" />
        </mxCell>
        <mxCell id="5btWQWwLIaZkZKoqhnkt-8" style="rounded=0;orthogonalLoop=1;jettySize=auto;html=1;entryX=0.513;entryY=-0.04;entryDx=0;entryDy=0;entryPerimeter=0;exitX=0.5;exitY=1;exitDx=0;exitDy=0;exitPerimeter=0;" edge="1" parent="1" source="5btWQWwLIaZkZKoqhnkt-2" target="5btWQWwLIaZkZKoqhnkt-6">
          <mxGeometry relative="1" as="geometry" />
        </mxCell>
        <mxCell id="5btWQWwLIaZkZKoqhnkt-10" value="Client B" style="verticalLabelPosition=bottom;html=1;verticalAlign=top;align=center;strokeColor=none;fillColor=#00BEF2;shape=mxgraph.azure.user;" vertex="1" parent="1">
          <mxGeometry x="783.25" y="170" width="47.5" height="50" as="geometry" />
        </mxCell>
        <mxCell id="5btWQWwLIaZkZKoqhnkt-11" value="Legal person B1" style="verticalLabelPosition=bottom;sketch=0;html=1;fillColor=#282828;strokeColor=none;verticalAlign=top;pointerEvents=1;align=center;shape=mxgraph.cisco_safe.people_places_things_icons.icon8;" vertex="1" parent="1">
          <mxGeometry x="693.25" y="355" width="19.5" height="50" as="geometry" />
        </mxCell>
        <mxCell id="5btWQWwLIaZkZKoqhnkt-12" style="rounded=0;orthogonalLoop=1;jettySize=auto;html=1;entryX=0.513;entryY=-0.06;entryDx=0;entryDy=0;entryPerimeter=0;exitX=0.5;exitY=1;exitDx=0;exitDy=0;exitPerimeter=0;" edge="1" parent="1" source="5btWQWwLIaZkZKoqhnkt-10" target="5btWQWwLIaZkZKoqhnkt-11">
          <mxGeometry relative="1" as="geometry" />
        </mxCell>
        <mxCell id="5btWQWwLIaZkZKoqhnkt-13" value="Legal person B2" style="verticalLabelPosition=bottom;sketch=0;html=1;fillColor=#282828;strokeColor=none;verticalAlign=top;pointerEvents=1;align=center;shape=mxgraph.cisco_safe.people_places_things_icons.icon8;" vertex="1" parent="1">
          <mxGeometry x="797.25" y="355" width="19.5" height="50" as="geometry" />
        </mxCell>
        <mxCell id="5btWQWwLIaZkZKoqhnkt-14" value="Legal person B3" style="verticalLabelPosition=bottom;sketch=0;html=1;fillColor=#282828;strokeColor=none;verticalAlign=top;pointerEvents=1;align=center;shape=mxgraph.cisco_safe.people_places_things_icons.icon8;" vertex="1" parent="1">
          <mxGeometry x="903.25" y="355" width="19.5" height="50" as="geometry" />
        </mxCell>
        <mxCell id="5btWQWwLIaZkZKoqhnkt-15" style="rounded=0;orthogonalLoop=1;jettySize=auto;html=1;entryX=0.462;entryY=-0.1;entryDx=0;entryDy=0;entryPerimeter=0;" edge="1" parent="1" source="5btWQWwLIaZkZKoqhnkt-10" target="5btWQWwLIaZkZKoqhnkt-13">
          <mxGeometry relative="1" as="geometry" />
        </mxCell>
        <mxCell id="5btWQWwLIaZkZKoqhnkt-16" style="rounded=0;orthogonalLoop=1;jettySize=auto;html=1;entryX=0.513;entryY=-0.04;entryDx=0;entryDy=0;entryPerimeter=0;exitX=0.5;exitY=1;exitDx=0;exitDy=0;exitPerimeter=0;" edge="1" parent="1" source="5btWQWwLIaZkZKoqhnkt-10" target="5btWQWwLIaZkZKoqhnkt-14">
          <mxGeometry relative="1" as="geometry" />
        </mxCell>
        <mxCell id="5btWQWwLIaZkZKoqhnkt-22" style="edgeStyle=orthogonalEdgeStyle;rounded=0;orthogonalLoop=1;jettySize=auto;html=1;" edge="1" parent="1" source="5btWQWwLIaZkZKoqhnkt-17" target="5btWQWwLIaZkZKoqhnkt-19">
          <mxGeometry relative="1" as="geometry" />
        </mxCell>
        <mxCell id="5btWQWwLIaZkZKoqhnkt-23" style="edgeStyle=orthogonalEdgeStyle;rounded=0;orthogonalLoop=1;jettySize=auto;html=1;" edge="1" parent="1" source="5btWQWwLIaZkZKoqhnkt-17" target="5btWQWwLIaZkZKoqhnkt-20">
          <mxGeometry relative="1" as="geometry" />
        </mxCell>
        <mxCell id="5btWQWwLIaZkZKoqhnkt-17" value="Tenant A --&amp;gt; Channel X" style="sketch=0;pointerEvents=1;shadow=0;dashed=0;html=1;strokeColor=none;fillColor=#505050;labelPosition=center;verticalLabelPosition=bottom;verticalAlign=top;outlineConnect=0;align=center;shape=mxgraph.office.users.tenant_admin;" vertex="1" parent="1">
          <mxGeometry x="98.75" y="600" width="56" height="58" as="geometry" />
        </mxCell>
        <mxCell id="5btWQWwLIaZkZKoqhnkt-18" value="Credential AX1" style="sketch=0;pointerEvents=1;shadow=0;dashed=0;html=1;strokeColor=none;fillColor=#434445;aspect=fixed;labelPosition=center;verticalLabelPosition=bottom;verticalAlign=top;align=center;outlineConnect=0;shape=mxgraph.vvd.tenant_key;" vertex="1" parent="1">
          <mxGeometry x="10" y="730" width="25.5" height="50" as="geometry" />
        </mxCell>
        <mxCell id="5btWQWwLIaZkZKoqhnkt-19" value="Credential AX2" style="sketch=0;pointerEvents=1;shadow=0;dashed=0;html=1;strokeColor=none;fillColor=#434445;aspect=fixed;labelPosition=center;verticalLabelPosition=bottom;verticalAlign=top;align=center;outlineConnect=0;shape=mxgraph.vvd.tenant_key;" vertex="1" parent="1">
          <mxGeometry x="114" y="730" width="25.5" height="50" as="geometry" />
        </mxCell>
        <mxCell id="5btWQWwLIaZkZKoqhnkt-20" value="Credential AX3" style="sketch=0;pointerEvents=1;shadow=0;dashed=0;html=1;strokeColor=none;fillColor=#434445;aspect=fixed;labelPosition=center;verticalLabelPosition=bottom;verticalAlign=top;align=center;outlineConnect=0;shape=mxgraph.vvd.tenant_key;" vertex="1" parent="1">
          <mxGeometry x="220" y="730" width="25.5" height="50" as="geometry" />
        </mxCell>
        <mxCell id="5btWQWwLIaZkZKoqhnkt-21" style="edgeStyle=orthogonalEdgeStyle;rounded=0;orthogonalLoop=1;jettySize=auto;html=1;entryX=0.549;entryY=-0.02;entryDx=0;entryDy=0;entryPerimeter=0;" edge="1" parent="1" source="5btWQWwLIaZkZKoqhnkt-17" target="5btWQWwLIaZkZKoqhnkt-18">
          <mxGeometry relative="1" as="geometry">
            <mxPoint x="63" y="680" as="sourcePoint" />
          </mxGeometry>
        </mxCell>
        <mxCell id="5btWQWwLIaZkZKoqhnkt-24" style="edgeStyle=orthogonalEdgeStyle;rounded=0;orthogonalLoop=1;jettySize=auto;html=1;" edge="1" parent="1" source="5btWQWwLIaZkZKoqhnkt-26" target="5btWQWwLIaZkZKoqhnkt-28">
          <mxGeometry relative="1" as="geometry" />
        </mxCell>
        <mxCell id="5btWQWwLIaZkZKoqhnkt-25" style="edgeStyle=orthogonalEdgeStyle;rounded=0;orthogonalLoop=1;jettySize=auto;html=1;" edge="1" parent="1" source="5btWQWwLIaZkZKoqhnkt-26" target="5btWQWwLIaZkZKoqhnkt-29">
          <mxGeometry relative="1" as="geometry" />
        </mxCell>
        <mxCell id="5btWQWwLIaZkZKoqhnkt-26" value="Tenant B --&amp;gt; Channel X" style="sketch=0;pointerEvents=1;shadow=0;dashed=0;html=1;strokeColor=none;fillColor=#505050;labelPosition=center;verticalLabelPosition=bottom;verticalAlign=top;outlineConnect=0;align=center;shape=mxgraph.office.users.tenant_admin;" vertex="1" parent="1">
          <mxGeometry x="670" y="600" width="56" height="58" as="geometry" />
        </mxCell>
        <mxCell id="5btWQWwLIaZkZKoqhnkt-27" value="Credential BX1" style="sketch=0;pointerEvents=1;shadow=0;dashed=0;html=1;strokeColor=none;fillColor=#434445;aspect=fixed;labelPosition=center;verticalLabelPosition=bottom;verticalAlign=top;align=center;outlineConnect=0;shape=mxgraph.vvd.tenant_key;" vertex="1" parent="1">
          <mxGeometry x="581.25" y="730" width="25.5" height="50" as="geometry" />
        </mxCell>
        <mxCell id="5btWQWwLIaZkZKoqhnkt-28" value="Credential BX2" style="sketch=0;pointerEvents=1;shadow=0;dashed=0;html=1;strokeColor=none;fillColor=#434445;aspect=fixed;labelPosition=center;verticalLabelPosition=bottom;verticalAlign=top;align=center;outlineConnect=0;shape=mxgraph.vvd.tenant_key;" vertex="1" parent="1">
          <mxGeometry x="685.25" y="730" width="25.5" height="50" as="geometry" />
        </mxCell>
        <mxCell id="5btWQWwLIaZkZKoqhnkt-29" value="Credential BX3" style="sketch=0;pointerEvents=1;shadow=0;dashed=0;html=1;strokeColor=none;fillColor=#434445;aspect=fixed;labelPosition=center;verticalLabelPosition=bottom;verticalAlign=top;align=center;outlineConnect=0;shape=mxgraph.vvd.tenant_key;" vertex="1" parent="1">
          <mxGeometry x="791.25" y="730" width="25.5" height="50" as="geometry" />
        </mxCell>
        <mxCell id="5btWQWwLIaZkZKoqhnkt-30" style="edgeStyle=orthogonalEdgeStyle;rounded=0;orthogonalLoop=1;jettySize=auto;html=1;entryX=0.549;entryY=-0.02;entryDx=0;entryDy=0;entryPerimeter=0;" edge="1" parent="1" source="5btWQWwLIaZkZKoqhnkt-26" target="5btWQWwLIaZkZKoqhnkt-27">
          <mxGeometry relative="1" as="geometry">
            <mxPoint x="634.25" y="680" as="sourcePoint" />
          </mxGeometry>
        </mxCell>
        <mxCell id="5btWQWwLIaZkZKoqhnkt-32" value="Channel X" style="image;aspect=fixed;perimeter=ellipsePerimeter;html=1;align=center;fontSize=12;verticalAlign=top;fontColor=#364149;shadow=0;dashed=0;image=img/lib/cumulus/switch_out_of_band.svg;" vertex="1" parent="1">
          <mxGeometry x="121" y="510" width="96" height="24" as="geometry" />
        </mxCell>
        <mxCell id="5btWQWwLIaZkZKoqhnkt-33" value="Channel Y" style="image;aspect=fixed;perimeter=ellipsePerimeter;html=1;align=center;fontSize=12;verticalAlign=top;fontColor=#364149;shadow=0;dashed=0;image=img/lib/cumulus/switch_voyager.svg;" vertex="1" parent="1">
          <mxGeometry x="308.25" y="510" width="96" height="24" as="geometry" />
        </mxCell>
        <mxCell id="5btWQWwLIaZkZKoqhnkt-34" style="edgeStyle=orthogonalEdgeStyle;rounded=0;orthogonalLoop=1;jettySize=auto;html=1;" edge="1" parent="1" source="5btWQWwLIaZkZKoqhnkt-36" target="5btWQWwLIaZkZKoqhnkt-38">
          <mxGeometry relative="1" as="geometry" />
        </mxCell>
        <mxCell id="5btWQWwLIaZkZKoqhnkt-35" style="edgeStyle=orthogonalEdgeStyle;rounded=0;orthogonalLoop=1;jettySize=auto;html=1;" edge="1" parent="1" source="5btWQWwLIaZkZKoqhnkt-36" target="5btWQWwLIaZkZKoqhnkt-39">
          <mxGeometry relative="1" as="geometry" />
        </mxCell>
        <mxCell id="5btWQWwLIaZkZKoqhnkt-36" value="Tenant A --&amp;gt; Channel X" style="sketch=0;pointerEvents=1;shadow=0;dashed=0;html=1;strokeColor=none;fillColor=#505050;labelPosition=center;verticalLabelPosition=bottom;verticalAlign=top;outlineConnect=0;align=center;shape=mxgraph.office.users.tenant_admin;" vertex="1" parent="1">
          <mxGeometry x="948.75" y="600" width="56" height="58" as="geometry" />
        </mxCell>
        <mxCell id="5btWQWwLIaZkZKoqhnkt-37" value="Credential AX1" style="sketch=0;pointerEvents=1;shadow=0;dashed=0;html=1;strokeColor=none;fillColor=#434445;aspect=fixed;labelPosition=center;verticalLabelPosition=bottom;verticalAlign=top;align=center;outlineConnect=0;shape=mxgraph.vvd.tenant_key;" vertex="1" parent="1">
          <mxGeometry x="860" y="730" width="25.5" height="50" as="geometry" />
        </mxCell>
        <mxCell id="5btWQWwLIaZkZKoqhnkt-38" value="Credential AX2" style="sketch=0;pointerEvents=1;shadow=0;dashed=0;html=1;strokeColor=none;fillColor=#434445;aspect=fixed;labelPosition=center;verticalLabelPosition=bottom;verticalAlign=top;align=center;outlineConnect=0;shape=mxgraph.vvd.tenant_key;" vertex="1" parent="1">
          <mxGeometry x="964" y="730" width="25.5" height="50" as="geometry" />
        </mxCell>
        <mxCell id="5btWQWwLIaZkZKoqhnkt-39" value="Credential AX3" style="sketch=0;pointerEvents=1;shadow=0;dashed=0;html=1;strokeColor=none;fillColor=#434445;aspect=fixed;labelPosition=center;verticalLabelPosition=bottom;verticalAlign=top;align=center;outlineConnect=0;shape=mxgraph.vvd.tenant_key;" vertex="1" parent="1">
          <mxGeometry x="1070" y="730" width="25.5" height="50" as="geometry" />
        </mxCell>
        <mxCell id="5btWQWwLIaZkZKoqhnkt-40" style="edgeStyle=orthogonalEdgeStyle;rounded=0;orthogonalLoop=1;jettySize=auto;html=1;entryX=0.549;entryY=-0.02;entryDx=0;entryDy=0;entryPerimeter=0;" edge="1" parent="1" source="5btWQWwLIaZkZKoqhnkt-36" target="5btWQWwLIaZkZKoqhnkt-37">
          <mxGeometry relative="1" as="geometry">
            <mxPoint x="913" y="680" as="sourcePoint" />
          </mxGeometry>
        </mxCell>
        <mxCell id="5btWQWwLIaZkZKoqhnkt-41" style="edgeStyle=orthogonalEdgeStyle;rounded=0;orthogonalLoop=1;jettySize=auto;html=1;" edge="1" parent="1" source="5btWQWwLIaZkZKoqhnkt-43" target="5btWQWwLIaZkZKoqhnkt-45">
          <mxGeometry relative="1" as="geometry" />
        </mxCell>
        <mxCell id="5btWQWwLIaZkZKoqhnkt-42" style="edgeStyle=orthogonalEdgeStyle;rounded=0;orthogonalLoop=1;jettySize=auto;html=1;" edge="1" parent="1" source="5btWQWwLIaZkZKoqhnkt-43" target="5btWQWwLIaZkZKoqhnkt-46">
          <mxGeometry relative="1" as="geometry" />
        </mxCell>
        <mxCell id="5btWQWwLIaZkZKoqhnkt-43" value="Tenant A --&amp;gt; Channel X" style="sketch=0;pointerEvents=1;shadow=0;dashed=0;html=1;strokeColor=none;fillColor=#505050;labelPosition=center;verticalLabelPosition=bottom;verticalAlign=top;outlineConnect=0;align=center;shape=mxgraph.office.users.tenant_admin;" vertex="1" parent="1">
          <mxGeometry x="358.25" y="600" width="56" height="58" as="geometry" />
        </mxCell>
        <mxCell id="5btWQWwLIaZkZKoqhnkt-44" value="Credential AX1" style="sketch=0;pointerEvents=1;shadow=0;dashed=0;html=1;strokeColor=none;fillColor=#434445;aspect=fixed;labelPosition=center;verticalLabelPosition=bottom;verticalAlign=top;align=center;outlineConnect=0;shape=mxgraph.vvd.tenant_key;" vertex="1" parent="1">
          <mxGeometry x="269.5" y="730" width="25.5" height="50" as="geometry" />
        </mxCell>
        <mxCell id="5btWQWwLIaZkZKoqhnkt-45" value="Credential AX2" style="sketch=0;pointerEvents=1;shadow=0;dashed=0;html=1;strokeColor=none;fillColor=#434445;aspect=fixed;labelPosition=center;verticalLabelPosition=bottom;verticalAlign=top;align=center;outlineConnect=0;shape=mxgraph.vvd.tenant_key;" vertex="1" parent="1">
          <mxGeometry x="373.5" y="730" width="25.5" height="50" as="geometry" />
        </mxCell>
        <mxCell id="5btWQWwLIaZkZKoqhnkt-46" value="Credential AX3" style="sketch=0;pointerEvents=1;shadow=0;dashed=0;html=1;strokeColor=none;fillColor=#434445;aspect=fixed;labelPosition=center;verticalLabelPosition=bottom;verticalAlign=top;align=center;outlineConnect=0;shape=mxgraph.vvd.tenant_key;" vertex="1" parent="1">
          <mxGeometry x="479.5" y="730" width="25.5" height="50" as="geometry" />
        </mxCell>
        <mxCell id="5btWQWwLIaZkZKoqhnkt-47" style="edgeStyle=orthogonalEdgeStyle;rounded=0;orthogonalLoop=1;jettySize=auto;html=1;entryX=0.549;entryY=-0.02;entryDx=0;entryDy=0;entryPerimeter=0;" edge="1" parent="1" source="5btWQWwLIaZkZKoqhnkt-43" target="5btWQWwLIaZkZKoqhnkt-44">
          <mxGeometry relative="1" as="geometry">
            <mxPoint x="322.5" y="680" as="sourcePoint" />
          </mxGeometry>
        </mxCell>
        <mxCell id="5btWQWwLIaZkZKoqhnkt-48" value="Channel X" style="image;aspect=fixed;perimeter=ellipsePerimeter;html=1;align=center;fontSize=12;verticalAlign=top;fontColor=#364149;shadow=0;dashed=0;image=img/lib/cumulus/switch_out_of_band.svg;" vertex="1" parent="1">
          <mxGeometry x="662.38" y="510" width="96" height="24" as="geometry" />
        </mxCell>
        <mxCell id="5btWQWwLIaZkZKoqhnkt-49" value="Channel Y" style="image;aspect=fixed;perimeter=ellipsePerimeter;html=1;align=center;fontSize=12;verticalAlign=top;fontColor=#364149;shadow=0;dashed=0;image=img/lib/cumulus/switch_voyager.svg;" vertex="1" parent="1">
          <mxGeometry x="849.63" y="510" width="96" height="24" as="geometry" />
        </mxCell>
        <mxCell id="5btWQWwLIaZkZKoqhnkt-56" style="edgeStyle=orthogonalEdgeStyle;rounded=0;orthogonalLoop=1;jettySize=auto;html=1;" edge="1" parent="1" source="5btWQWwLIaZkZKoqhnkt-52" target="5btWQWwLIaZkZKoqhnkt-54">
          <mxGeometry relative="1" as="geometry" />
        </mxCell>
        <mxCell id="5btWQWwLIaZkZKoqhnkt-52" value="Client A" style="verticalLabelPosition=bottom;html=1;verticalAlign=top;align=center;strokeColor=none;fillColor=#00BEF2;shape=mxgraph.azure.user;" vertex="1" parent="1">
          <mxGeometry x="-270" y="174" width="47.5" height="50" as="geometry" />
        </mxCell>
        <mxCell id="5btWQWwLIaZkZKoqhnkt-57" style="edgeStyle=orthogonalEdgeStyle;rounded=0;orthogonalLoop=1;jettySize=auto;html=1;" edge="1" parent="1" source="5btWQWwLIaZkZKoqhnkt-53" target="5btWQWwLIaZkZKoqhnkt-55">
          <mxGeometry relative="1" as="geometry" />
        </mxCell>
        <mxCell id="5btWQWwLIaZkZKoqhnkt-53" value="Client B" style="verticalLabelPosition=bottom;html=1;verticalAlign=top;align=center;strokeColor=none;fillColor=#00BEF2;shape=mxgraph.azure.user;" vertex="1" parent="1">
          <mxGeometry x="-270" y="284" width="47.5" height="50" as="geometry" />
        </mxCell>
        <mxCell id="5btWQWwLIaZkZKoqhnkt-54" value="Tenant A" style="sketch=0;pointerEvents=1;shadow=0;dashed=0;html=1;strokeColor=none;fillColor=#505050;labelPosition=center;verticalLabelPosition=bottom;verticalAlign=top;outlineConnect=0;align=center;shape=mxgraph.office.users.tenant_admin;" vertex="1" parent="1">
          <mxGeometry x="-120" y="170" width="56" height="58" as="geometry" />
        </mxCell>
        <mxCell id="5btWQWwLIaZkZKoqhnkt-55" value="Tenant B" style="sketch=0;pointerEvents=1;shadow=0;dashed=0;html=1;strokeColor=none;fillColor=#505050;labelPosition=center;verticalLabelPosition=bottom;verticalAlign=top;outlineConnect=0;align=center;shape=mxgraph.office.users.tenant_admin;" vertex="1" parent="1">
          <mxGeometry x="-120" y="280" width="56" height="58" as="geometry" />
        </mxCell>
      </root>
    </mxGraphModel>
  </diagram>
</mxfile>
